<?xml version="1.0" encoding="utf-8"?>
<svg version="1.1" xmlns:xlink="http://www.w3.org/1999/xlink" width="26px" height="34px" xmlns="http://www.w3.org/2000/svg">
  <g transform="matrix(1 0 0 1 -65 -283 )">
    <path d="M 25.678385416666668 27.7046875  C 25.892795138888886 28.041145833333335  26 28.439583333333335  26 28.9  L 26 32.3  C 26 32.760416666666664  25.892795138888886 33.158854166666664  25.678385416666668 33.4953125  C 25.463975694444446 33.83177083333334  25.210069444444446 34  24.916666666666668 34  L 1.0833333333333333 34  C 0.7899305555555556 34  0.5360243055555556 33.83177083333334  0.3216145833333333 33.4953125  C 0.10720486111111112 33.158854166666664  0 32.760416666666664  0 32.3  L 0 28.9  C 0 28.439583333333335  0.10720486111111112 28.041145833333335  0.3216145833333333 27.7046875  C 0.5360243055555556 27.368229166666666  0.7899305555555556 27.200000000000003  1.0833333333333333 27  L 24.916666666666668 27  C 25.210069444444446 27.200000000000003  25.463975694444446 27.368229166666666  25.678385416666668 27.7046875  Z M 25.678385416666668 14.104687499999999  C 25.892795138888886 14.441145833333332  26 14.839583333333332  26 15.299999999999999  L 26 18.700000000000003  C 26 19.160416666666663  25.892795138888886 19.558854166666663  25.678385416666668 19.895312500000003  C 25.463975694444446 20.231770833333332  25.210069444444446 20.4  24.916666666666668 20  L 1.0833333333333333 20  C 0.7899305555555556 20.4  0.5360243055555556 20.231770833333332  0.3216145833333333 19.895312500000003  C 0.10720486111111112 19.558854166666663  0 19.160416666666663  0 18.700000000000003  L 0 15.299999999999999  C 0 14.839583333333332  0.10720486111111112 14.441145833333332  0.3216145833333333 14.104687499999999  C 0.5360243055555556 13.76822916666667  0.7899305555555556 13.600000000000001  1.0833333333333333 14  L 24.916666666666668 14  C 25.210069444444446 13.600000000000001  25.463975694444446 13.76822916666667  25.678385416666668 14.104687499999999  Z M 25.678385416666668 0.5046875000000015  C 25.892795138888886 0.8411458333333308  26 1.2395833333333308  26 1.7000000000000015  L 26 5.1000000000000005  C 26 5.560416666666664  25.892795138888886 5.958854166666664  25.678385416666668 6.2953125000000005  C 25.463975694444446 6.63177083333333  25.210069444444446 6.799999999999999  24.916666666666668 7  L 1.0833333333333333 7  C 0.7899305555555556 6.799999999999999  0.5360243055555556 6.63177083333333  0.3216145833333333 6.2953125000000005  C 0.10720486111111112 5.958854166666664  0 5.560416666666664  0 5.1000000000000005  L 0 1.7000000000000015  C 0 1.2395833333333308  0.10720486111111112 0.8411458333333308  0.3216145833333333 0.5046875000000015  C 0.5360243055555556 0.16822916666666465  0.7899305555555556 0  1.0833333333333333 0  L 24.916666666666668 0  C 25.210069444444446 0  25.463975694444446 0.16822916666666465  25.678385416666668 0.5046875000000015  Z " fill-rule="nonzero" fill="#7e94c9" stroke="none" transform="matrix(1 0 0 1 65 283 )" />
  </g>
</svg>