<?xml version="1.0" encoding="utf-8"?>
<svg version="1.1" xmlns:xlink="http://www.w3.org/1999/xlink" width="70px" height="67px" xmlns="http://www.w3.org/2000/svg">
  <g transform="matrix(1 0 0 1 -1252 -2256 )">
    <path d="M 1295.5 2256.5  L 1278.5 2256.5  L 1278.5 2281.5  L 1252.5 2281.5  L 1252.5 2297.5  L 1278.5 2297.5  L 1278.5 2322.5  L 1295.5 2322.5  L 1295.5 2297.5  L 1321.5 2297.5  L 1321.5 2281.5  L 1295.5 2281.5  L 1295.5 2256.5  Z " fill-rule="nonzero" fill="#f7f7cc" stroke="none" />
    <path d="M 1295.5 2256.5  L 1278.5 2256.5  L 1278.5 2281.5  L 1252.5 2281.5  L 1252.5 2297.5  L 1278.5 2297.5  L 1278.5 2322.5  L 1295.5 2322.5  L 1295.5 2297.5  L 1321.5 2297.5  L 1321.5 2281.5  L 1295.5 2281.5  L 1295.5 2256.5  Z " stroke-width="1" stroke="#797979" fill="none" />
  </g>
</svg>