<?xml version="1.0" standalone="no"?><!DOCTYPE svg PUBLIC "-//W3C//DTD SVG 1.1//EN" "http://www.w3.org/Graphics/SVG/1.1/DTD/svg11.dtd"><svg t="1633350061081" class="icon" viewBox="0 0 1024 1024" version="1.1" xmlns="http://www.w3.org/2000/svg" p-id="8247" xmlns:xlink="http://www.w3.org/1999/xlink" width="200" height="200"><defs><style type="text/css"></style></defs><path d="M700.778231 828.255782H224.304762c-27.863946 0-50.155102-22.291156-50.155102-50.155102V53.638095C174.14966 25.77415 196.440816 3.482993 224.304762 3.482993h476.473469c34.829932 0 62.693878 27.863946 62.693878 62.693878v699.385034c0.696599 34.133333-27.863946 62.693878-62.693878 62.693877z" fill="#FFFFFF" p-id="8248"></path><path d="M764.168707 65.480272v699.385034c0 34.829932-27.863946 62.693878-62.693877 62.693878H224.304762c-4.87619 0-9.752381-0.696599-14.628572-2.089796-20.897959-6.269388-36.223129-25.077551-36.223129-48.065306V52.941497C173.453061 25.077551 195.744218 2.786395 223.608163 2.786395h477.170068c34.829932 0 63.390476 28.560544 63.390476 62.693877z" fill="#e6e6e6" p-id="8249" data-spm-anchor-id="a313x.7781069.0.i4" class=""></path><path d="M396.364626 1012.157823L202.710204 845.670748C184.598639 830.345578 174.14966 807.357823 174.14966 783.673469V37.616327C174.14966 21.594558 192.957823 12.538776 205.496599 22.987755l211.069387 181.812245c14.628571 12.538776 22.987755 30.65034 22.987755 50.155102v737.697959c0 22.291156-26.470748 34.133333-43.189115 19.504762z" fill="#bfbfbf" p-id="8250" data-spm-anchor-id="a313x.7781069.0.i5" class=""></path><path d="M844.97415 394.971429L753.719728 303.717007c-11.145578-11.145578-29.953741-11.145578-41.09932 0-11.145578 11.145578-11.145578 29.953741 0 41.09932l41.795919 41.795918H556.582313c-16.021769 0-29.257143 13.235374-29.257143 29.257143 0 16.021769 13.235374 29.257143 29.257143 29.257143h197.834014l-41.795919 41.795918c-11.145578 11.145578-11.145578 29.953741 0 41.09932 5.572789 5.572789 13.235374 8.359184 20.897959 8.359183s14.628571-2.786395 20.201361-8.359183l91.254422-91.254422c5.572789-5.572789 8.359184-12.538776 8.359183-20.897959s-2.786395-15.32517-8.359183-20.897959z" fill="#bfbfbf" p-id="8251" data-spm-anchor-id="a313x.7781069.0.i3" class="selected"></path></svg>